<?xml version="1.0" encoding="UTF-8" standalone="no"?>
<svg
   viewBox="0 0 128 128"
   version="1.1"
   id="svg1"
   sodipodi:docname="java_white.svg"
   inkscape:version="1.4.2 (f4327f4, 2025-05-13)"
   xmlns:inkscape="http://www.inkscape.org/namespaces/inkscape"
   xmlns:sodipodi="http://sodipodi.sourceforge.net/DTD/sodipodi-0.dtd"
   xmlns="http://www.w3.org/2000/svg"
   xmlns:svg="http://www.w3.org/2000/svg">
  <defs
     id="defs1" />
  <sodipodi:namedview
     id="namedview1"
     pagecolor="#505050"
     bordercolor="#eeeeee"
     borderopacity="1"
     inkscape:showpageshadow="0"
     inkscape:pageopacity="0"
     inkscape:pagecheckerboard="0"
     inkscape:deskcolor="#505050"
     inkscape:zoom="6.3046875"
     inkscape:cx="63.920694"
     inkscape:cy="89.377943"
     inkscape:window-width="1920"
     inkscape:window-height="1009"
     inkscape:window-x="-8"
     inkscape:window-y="-8"
     inkscape:window-maximized="1"
     inkscape:current-layer="svg1" />
  <path
     fill="#EA2D2E"
     d="m 47.200718,98.98714 c -19.679915,5.49832 11.973863,16.85693 37.033145,6.12074 -4.104767,-1.59555 -7.048756,-3.43618 -7.048756,-3.43618 -11.174032,2.11237 -16.357545,2.27849 -26.501027,1.11975 -8.371552,-0.95876 -3.483362,-3.80431 -3.483362,-3.80431 z M 81.233476,88.261217 c -14.811207,2.84965 -23.366309,2.758388 -34.201952,1.640677 -8.37873,-0.866482 -2.893743,-4.927157 -2.893743,-4.927157 -21.674362,7.194367 12.066149,15.357753 42.35919,6.49708 -3.219827,-1.134119 -5.263495,-3.2106 -5.263495,-3.2106 z M 92.840236,26.14623 c 10e-4,0 -43.817341,10.940236 -22.890512,35.056131 6.177147,7.111307 -1.620169,13.504817 -1.620169,13.504817 0,0 15.67769,-8.091611 8.479221,-18.228941 -6.725748,-9.44927 -11.881574,-14.143656 16.03146,-30.332007 z m 10.252184,83.20691 c 0,0 3.61871,2.98397 -3.98685,5.29016 -14.460512,4.3806 -60.198471,5.70135 -72.902435,0.17534 -4.563131,-1.98727 3.998124,-4.74258 6.691909,-5.324 2.808634,-0.60807 4.412395,-0.49732 4.412395,-0.49732 -5.077894,-3.57566 -32.8268603,7.02414 -14.091361,10.06452 51.087591,8.28132 93.125822,-3.72946 79.876342,-9.7087 z M 85.5341,78.248989 c 2.455887,-1.675541 5.847985,-3.130616 5.847985,-3.130616 0,0 -9.663584,1.727838 -19.291279,2.536896 -11.78621,0.988508 -24.428647,1.183339 -30.774989,0.334288 -15.024495,-2.008803 8.237222,-7.534807 8.237222,-7.534807 0,0 -9.036027,-0.611152 -20.143406,4.762064 -13.137717,6.352494 32.496674,9.248288 56.124467,3.032175 z m 5.751595,15.530028 c -0.110745,0.297373 -0.479898,0.631661 -0.479898,0.631661 32.068043,-8.430001 20.277733,-29.715728 4.94459,-24.328156 -1.345355,0.475796 -2.050846,1.582227 -2.050846,1.582227 0,0 0.850076,-0.342491 2.746082,-0.738304 7.751177,-1.615041 18.856507,10.376253 -5.159928,22.852572 z M 64.185821,70.223005 C 59.45452,59.52887 43.410756,50.172913 64.192999,33.759995 90.10646,13.305886 76.809802,0 76.809802,0 82.172763,21.131914 57.889725,27.51517 49.124411,40.675447 c -5.968986,8.967322 2.929633,18.60322 15.06141,29.547558 z m 27.967382,53.063575 c -19.674788,3.70383 -43.943468,3.27213 -58.333227,0.89622 0,0 2.947065,2.44051 18.094611,3.41569 23.047403,1.47353 58.449103,-0.82034 59.285843,-11.72674 0.001,0 -1.60991,4.13451 -19.047227,7.41483 z"
     id="path1"
     style="fill:#ffffff;fill-opacity:1;stroke-width:1.02542" />
</svg>
