<?xml version="1.0" encoding="UTF-8" standalone="no"?>
<svg
   viewBox="0 0 128 128"
   version="1.1"
   id="svg1"
   sodipodi:docname="oracle_black.svg"
   inkscape:version="1.4.2 (f4327f4, 2025-05-13)"
   xmlns:inkscape="http://www.inkscape.org/namespaces/inkscape"
   xmlns:sodipodi="http://sodipodi.sourceforge.net/DTD/sodipodi-0.dtd"
   xmlns="http://www.w3.org/2000/svg"
   xmlns:svg="http://www.w3.org/2000/svg">
  <defs
     id="defs1" />
  <sodipodi:namedview
     id="namedview1"
     pagecolor="#505050"
     bordercolor="#eeeeee"
     borderopacity="1"
     inkscape:showpageshadow="0"
     inkscape:pageopacity="0"
     inkscape:pagecheckerboard="0"
     inkscape:deskcolor="#505050"
     inkscape:zoom="4.4580873"
     inkscape:cx="82.995234"
     inkscape:cy="40.039593"
     inkscape:window-width="1920"
     inkscape:window-height="1009"
     inkscape:window-x="-8"
     inkscape:window-y="-8"
     inkscape:window-maximized="1"
     inkscape:current-layer="svg1" />
  <path
     fill="#EA1B22"
     d="m 55.259026,66.505678 h 8.456814 l -4.47248,-7.195344 -8.208172,13.009467 h -3.735694 l 9.984174,-15.626786 a 2.3585304,2.3585304 0 0 1 1.959692,-1.012829 c 0.776366,0 1.49996,0.368394 1.920112,0.986442 L 71.18621,72.319801 H 67.450518 L 65.688724,69.412232 H 57.12535 Z m 38.803102,2.906554 V 55.838504 h -3.169402 v 14.903192 c 0,0.407973 0.158318,0.802753 0.460746,1.105181 0.302428,0.302427 0.7104,0.472924 1.157954,0.472924 h 14.455634 l 1.86836,-2.907569 z M 41.617304,66.979617 c 3.078064,0 5.57766,-2.485388 5.57766,-5.563452 0,-3.078065 -2.498582,-5.577661 -5.57766,-5.577661 H 27.749266 v 16.482311 h 3.169402 V 58.745058 h 10.48856 c 1.473574,0 2.656898,1.197533 2.656898,2.670092 0,1.472559 -1.18434,2.670091 -2.656898,2.670091 l -8.936842,-0.0132 9.462538,8.247753 h 4.605426 l -6.36722,-5.341199 h 1.446174 z M 8.242678,72.319801 C 3.6930688,72.319801 0,68.63688 0,64.085241 0,59.533603 3.692054,55.837489 8.242678,55.837489 h 9.579246 c 4.551638,0 8.241664,3.697128 8.241664,8.247752 0,4.550624 -3.690026,8.23456 -8.241664,8.23456 z m 9.366126,-2.907569 a 5.3280054,5.3280054 0 0 0 5.336124,-5.326991 5.3401836,5.3401836 0 0 0 -5.336124,-5.341198 H 8.4537684 A 5.3401836,5.3401836 0 0 0 3.119674,64.085241 5.3280054,5.3280054 0 0 0 8.4537684,69.412232 Z M 77.8041,72.319801 c -4.550624,0 -8.246736,-3.682921 -8.246736,-8.23456 0,-4.551638 3.696112,-8.247752 8.246736,-8.247752 h 11.37859 l -1.856176,2.906554 h -9.311322 a 5.345258,5.345258 0 0 0 -5.342214,5.341198 c 0,2.946134 2.395066,5.326991 5.342214,5.326991 H 89.445538 L 87.5782,72.319801 Z m 38.76454,-2.907569 a 5.3280054,5.3280054 0 0 1 -5.13012,-3.880818 h 13.54836 l 1.86734,-2.906553 h -15.4157 a 5.344243,5.344243 0 0 1 5.13012,-3.880818 h 9.29914 l 1.88156,-2.906554 h -11.3918 c -4.55062,0 -8.24674,3.697128 -8.24674,8.247752 0,4.550624 3.69612,8.23456 8.24674,8.23456 h 9.7741 L 128,69.412232 h -11.43136"
     id="path1"
     style="fill:#000000;fill-opacity:1;stroke-width:1.01486" />
</svg>
